PathFileType	4	(X/Y/Z)	D:\MotionData\NordSprintingStudy\Test 2\Edited\COP_Right_Board_FP3000001.trc
DataRate	CameraRate	NumFrames	NumMarkers	Units	OrigDataRate	OrigDataStartFrame	OrigNumFrames
200.00	200.00	     58	5	mm	200.00	6640	     17704
Frame#	Time	M1			M2			M3			M4			M5			
		X1	Y1	Z1	X2	Y2	Z2	X3	Y3	Z3	X4	Y4	Z4	X5	Y5	Z5	

6640	33.195	1768.76379	726.72137	460.21948	1620.65283	442.02866	458.32101	1620.80566	440.16254	658.87500	1622.30811	436.27301	1058.78699	1770.24817	721.73840	1060.50244	
6641	33.200	1768.76880	726.79547	460.15808	1620.68542	442.09604	458.37985	1620.82886	440.29758	658.97375	1622.40039	436.54135	1058.82886	1770.31519	722.02905	1060.44641	
6642	33.205	1768.78186	726.86145	460.08801	1620.70300	442.18225	458.43793	1620.91248	440.44232	659.01379	1622.48511	436.82358	1058.89661	1770.35852	722.33173	1060.38831	
6643	33.210	1768.79138	726.94305	460.03412	1620.73083	442.25320	458.49249	1620.95325	440.57620	659.04993	1622.55591	437.10587	1058.95447	1770.19287	722.55664	1060.22437	
6644	33.215	1768.76965	727.01709	459.97986	1620.76135	442.30338	458.54465	1621.00122	440.69873	659.13110	1622.61621	437.37515	1059.03772	1769.92981	722.76099	1060.06152	
6645	33.220	1768.75000	727.09998	459.92758	1620.77942	442.36310	458.60873	1621.07825	440.82217	659.16962	1622.69458	437.64532	1059.09607	1769.97253	723.06256	1060.00891	
6646	33.225	1768.75195	727.17932	459.87003	1620.82373	442.42255	458.67139	1621.10706	440.96008	659.24628	1622.77332	437.95432	1059.15564	1770.27417	723.49231	1060.06567	
6647	33.230	1768.66467	727.17328	459.67056	1620.84668	442.47482	458.72040	1621.14380	441.08340	659.29272	1622.79761	438.24646	1059.24475	1770.50134	723.94696	1060.22668	
6648	33.235	1768.63086	727.26715	459.59613	1620.85352	442.54254	458.77808	1621.16699	441.21854	659.36389	1622.82764	438.56168	1059.30212	1770.49817	724.23517	1060.16882	
6649	33.240	1768.61804	727.34686	459.56241	1620.88550	442.61020	458.84552	1621.19031	441.36499	659.44312	1622.88770	438.85181	1059.31982	1770.51611	724.52490	1060.12292	
6650	33.245	1768.60229	727.43964	459.51074	1620.88989	442.68283	458.88229	1621.21716	441.51608	659.46063	1622.89441	439.15250	1059.38098	1770.52234	724.82910	1060.06921	
6651	33.250	1768.61218	727.51453	459.44144	1620.89514	442.75360	458.93384	1621.21448	441.68997	659.52887	1622.89771	439.45764	1059.43384	1770.52515	725.12769	1060.01587	
6652	33.255	1768.61218	727.59247	459.39783	1620.90283	442.84485	458.99356	1621.18628	441.83643	659.61450	1622.87842	439.74667	1059.50415	1770.51050	725.42810	1059.97766	
6653	33.260	1768.60779	727.65399	459.36389	1620.89014	442.90366	459.06497	1621.20618	441.99319	659.69226	1622.89966	440.04218	1059.53333	1770.50293	725.75507	1059.91968	
6654	33.265	1768.61047	727.73706	459.29666	1620.88428	442.98083	459.10403	1621.21289	442.14120	659.71844	1622.87073	440.34573	1059.59338	1770.50623	726.07654	1059.87622	
6655	33.270	1768.67249	727.87885	459.42377	1620.92261	443.04230	459.17120	1621.21118	442.27594	659.80261	1622.84912	440.64841	1059.66028	1770.49512	726.42505	1059.83704	
6656	33.275	1768.67053	727.97778	459.39471	1620.94299	443.11658	459.22461	1621.23621	442.41711	659.85327	1622.83350	440.95663	1059.73499	1770.45850	726.74487	1059.79150	
6657	33.280	1768.61108	728.07141	459.33105	1620.98633	443.16946	459.27924	1621.22888	442.55716	659.94263	1622.74463	441.26392	1059.79346	1770.40881	727.08850	1059.73279	
6658	33.285	1768.57410	728.18414	459.26962	1621.02454	443.23914	459.31479	1621.26819	442.70547	659.97345	1622.52319	441.64813	1059.74268	1770.33179	727.34552	1059.51880	
6659	33.290	1768.50293	728.28833	459.22189	1621.05884	443.26831	459.38623	1621.34668	442.83667	659.99078	1622.56250	441.92892	1059.82300	1770.25830	727.65973	1059.47278	
6660	33.295	1768.44568	728.39471	459.18048	1621.12097	443.32230	459.42340	1621.39270	442.96027	660.05353	1622.58301	442.19586	1059.86792	1770.16406	727.99432	1059.42029	
6661	33.300	1768.38367	728.52039	459.12271	1621.20300	443.37820	459.50760	1621.41614	443.10663	660.11719	1622.58752	442.44617	1059.85071	1770.08350	728.34839	1059.39197	
6662	33.305	1768.30383	728.64172	459.05194	1621.24890	443.42081	459.52444	1621.47192	443.22552	660.14624	1622.63074	442.75214	1059.98242	1769.98743	728.71210	1059.30701	
6663	33.310	1768.20349	728.76355	459.01047	1621.31262	443.45526	459.58255	1621.52014	443.34274	660.21185	1622.67688	443.01709	1060.03589	1769.84753	729.13696	1059.39124	
6664	33.315	1768.11060	728.90131	458.95801	1621.38538	443.48923	459.64301	1621.60168	443.47668	660.25018	1622.74609	443.30222	1060.07739	1769.72803	729.50970	1059.35583	
6665	33.320	1768.02869	729.01941	458.91937	1621.47229	443.50961	459.69968	1621.66162	443.59323	660.28198	1622.79309	443.56244	1060.11768	1769.60303	729.90308	1059.29187	
6666	33.325	1767.89221	729.15240	458.84567	1621.55554	443.55118	459.73502	1621.73181	443.70459	660.32867	1622.83350	443.84488	1060.16467	1769.44971	730.25232	1059.23950	
6667	33.330	1767.79993	729.28314	458.79150	1621.63843	443.57935	459.79849	1621.77026	443.80884	660.39606	1622.89124	444.11987	1060.22742	1769.32312	730.60760	1059.16553	
6668	33.335	1767.67712	729.41504	458.72495	1621.70105	443.62219	459.84641	1621.86365	443.92902	660.41547	1622.93713	444.40192	1060.27820	1769.17908	730.98413	1059.12097	
6669	33.340	1767.59448	729.51697	458.68134	1621.82959	443.65598	459.88235	1621.90991	444.04782	660.45575	1622.95898	444.68195	1060.33899	1769.00598	731.36121	1059.06824	
6670	33.345	1767.50769	729.65924	458.58060	1621.86890	443.69354	459.91837	1621.93628	444.18024	660.51031	1623.00110	444.97156	1060.36060	1768.43469	731.56018	1058.84631	
6671	33.350	1767.44128	729.76117	458.54861	1621.93860	443.73975	459.98279	1621.96301	444.28775	660.57434	1622.99670	445.26172	1060.45007	1768.73645	732.09985	1058.96509	
6672	33.355	1767.38037	729.87701	458.50562	1621.99060	443.79269	460.03659	1622.00183	444.42654	660.61060	1623.03589	445.56686	1060.46497	1768.64990	732.45447	1058.91028	
6673	33.360	1767.32581	729.97290	458.44269	1622.00586	443.82892	460.09534	1622.02332	444.55182	660.67377	1623.00696	445.85437	1060.53650	1768.54980	732.80847	1058.87048	
6674	33.365	1767.20471	729.98505	458.20682	1622.04041	443.90686	460.14993	1622.01575	444.68869	660.73157	1622.98511	446.17548	1060.59924	1768.45435	733.08533	1058.67993	
6675	33.370	1767.15686	730.07971	458.15140	1622.06091	443.97476	460.21136	1622.01221	444.83408	660.80365	1622.93982	446.48541	1060.69556	1768.21216	733.34540	1058.59229	
6676	33.375	1767.21533	730.28497	458.30154	1622.07617	444.05762	460.27551	1622.00598	444.99783	660.88116	1622.91028	446.82343	1060.77759	1768.17480	733.67365	1058.54553	
6677	33.380	1767.20203	730.35797	458.26956	1622.06677	444.12753	460.33981	1622.01660	445.13788	660.93457	1622.87830	447.14041	1060.83789	1768.30249	734.06537	1058.58875	
6678	33.385	1767.19849	730.44843	458.22446	1622.05481	444.20728	460.38824	1621.99451	445.31326	660.98602	1622.83447	447.50491	1060.89319	1768.27405	734.46118	1058.63855	
6679	33.390	1767.19653	730.51160	458.17435	1622.03064	444.28940	460.45538	1621.97729	445.48453	661.05347	1622.76062	447.81027	1060.97083	1768.24414	734.76953	1058.59961	
6680	33.395	1767.20386	730.58319	458.13351	1622.02002	444.38852	460.51974	1621.92285	445.64966	661.14258	1622.76514	448.14987	1060.99670	1768.25134	735.09631	1058.55188	
6681	33.400	1767.21863	730.65228	458.08310	1622.00281	444.45825	460.57141	1621.91577	445.82971	661.17719	1622.74915	448.45490	1061.02246	1768.25244	735.39972	1058.49780	
6682	33.405	1767.22827	730.71173	458.01462	1621.98206	444.55441	460.62109	1621.93030	445.98187	661.19836	1622.71765	448.75702	1061.08667	1768.25708	735.69214	1058.42920	
6683	33.410	1767.24634	730.76660	457.96664	1621.94629	444.62421	460.67783	1621.90747	446.13864	661.24585	1622.72437	449.04828	1061.13269	1768.27173	735.98871	1058.37708	
6684	33.415	1767.24609	730.82977	457.91583	1621.94043	444.72766	460.73434	1621.89905	446.29849	661.29529	1622.73218	449.33987	1061.17029	1768.26917	736.27655	1058.33179	
6685	33.420	1767.24646	730.90961	457.84372	1621.93140	444.78192	460.76996	1621.89417	446.44305	661.32196	1622.69885	449.61050	1061.22595	1768.27893	736.54352	1058.25610	
6686	33.425	1767.24280	730.97577	457.77875	1621.95374	444.84628	460.82181	1621.88733	446.57297	661.39337	1622.73474	449.88126	1061.23218	1768.25818	736.80695	1058.21912	
6687	33.430	1767.22437	731.04059	457.72400	1621.98010	444.90332	460.85672	1621.96326	446.69919	661.39099	1622.74438	450.10428	1061.26379	1768.26965	737.06525	1058.15515	
6688	33.435	1767.21558	731.10303	457.68216	1622.00806	444.95004	460.90186	1622.00159	446.79044	661.43567	1622.78833	450.31400	1061.29480	1768.27332	737.32477	1058.10144	
6689	33.440	1767.18347	731.18579	457.62204	1622.03857	445.00192	460.94055	1622.03650	446.89206	661.45239	1622.82483	450.50012	1061.33032	1768.25769	737.46356	1057.92102	
6690	33.445	1767.15320	731.24927	457.58301	1622.09277	445.01358	460.97305	1622.06482	446.95352	661.51385	1622.92273	450.67416	1061.33606	1768.26807	737.68719	1057.88586	
6691	33.450	1767.09070	731.33051	457.53659	1622.13745	445.05603	461.00058	1622.14551	447.03506	661.51953	1622.95715	450.84860	1061.35864	1768.21545	737.88074	1057.83569	
6692	33.455	1767.05652	731.38739	457.51581	1622.20093	445.06537	461.03311	1622.19690	447.09283	661.56891	1623.03687	450.98080	1061.38806	1768.20020	738.07239	1057.81152	
6693	33.460	1767.00818	731.45557	457.48849	1622.24304	445.06418	461.07944	1622.27502	447.15280	661.58252	1623.11462	451.10568	1061.41418	1768.16638	738.24652	1057.81287	
6694	33.465	1766.97034	731.52490	457.45026	1622.30493	445.08234	461.09216	1622.32214	447.16980	661.61066	1623.19666	451.21915	1061.42944	1768.14600	738.39978	1057.77100	
6695	33.470	1766.92346	731.56616	457.44089	1622.35693	445.07690	461.14078	1622.41968	447.20428	661.62170	1623.22681	451.28311	1061.38123	1768.15076	738.52325	1057.77319	
6696	33.475	1766.86694	731.62451	457.42432	1622.42249	445.07242	461.14664	1622.47327	447.20071	661.65948	1623.31934	451.33734	1061.42200	1768.10620	738.65332	1057.75513	
6697	33.480	1766.82031	731.66730	457.40576	1622.51416	445.05457	461.17017	1622.54614	447.21390	661.70349	1623.45178	451.34430	1061.42773	1768.07104	738.75415	1057.75537	
